<mxfile host="app.diagrams.net" modified="2024-02-13T08:31:09.753Z" agent="Mozilla/5.0 (Windows NT 10.0; Win64; x64) AppleWebKit/537.36 (KHTML, like Gecko) Chrome/121.0.0.0 Safari/537.36" etag="9v8JNiNoYiWa9Z90INhZ" version="23.1.2" type="github">
  <diagram name="Page-1" id="EH4iL50KmRDkao4dHPsv">
    <mxGraphModel dx="1695" dy="1000" grid="1" gridSize="10" guides="1" tooltips="1" connect="1" arrows="1" fold="1" page="1" pageScale="1" pageWidth="2339" pageHeight="3300" math="0" shadow="0">
      <root>
        <mxCell id="0" />
        <mxCell id="1" parent="0" />
        <mxCell id="WwHhSgSB2Pl0KXTaSk8k-5" value="" style="edgeStyle=orthogonalEdgeStyle;rounded=0;orthogonalLoop=1;jettySize=auto;html=1;" edge="1" parent="1" source="WwHhSgSB2Pl0KXTaSk8k-1" target="WwHhSgSB2Pl0KXTaSk8k-2">
          <mxGeometry relative="1" as="geometry" />
        </mxCell>
        <mxCell id="WwHhSgSB2Pl0KXTaSk8k-1" value="Start" style="ellipse;whiteSpace=wrap;html=1;" vertex="1" parent="1">
          <mxGeometry x="351.25" y="190" width="120" height="70" as="geometry" />
        </mxCell>
        <mxCell id="WwHhSgSB2Pl0KXTaSk8k-6" value="" style="edgeStyle=orthogonalEdgeStyle;rounded=0;orthogonalLoop=1;jettySize=auto;html=1;" edge="1" parent="1" source="WwHhSgSB2Pl0KXTaSk8k-2" target="WwHhSgSB2Pl0KXTaSk8k-4">
          <mxGeometry relative="1" as="geometry" />
        </mxCell>
        <mxCell id="WwHhSgSB2Pl0KXTaSk8k-2" value="input student ID" style="shape=parallelogram;perimeter=parallelogramPerimeter;whiteSpace=wrap;html=1;fixedSize=1;" vertex="1" parent="1">
          <mxGeometry x="326.25" y="350" width="170" height="60" as="geometry" />
        </mxCell>
        <mxCell id="WwHhSgSB2Pl0KXTaSk8k-34" style="edgeStyle=orthogonalEdgeStyle;rounded=0;orthogonalLoop=1;jettySize=auto;html=1;" edge="1" parent="1" source="WwHhSgSB2Pl0KXTaSk8k-3">
          <mxGeometry relative="1" as="geometry">
            <mxPoint x="430" y="290" as="targetPoint" />
            <Array as="points">
              <mxPoint x="631" y="290" />
            </Array>
          </mxGeometry>
        </mxCell>
        <mxCell id="WwHhSgSB2Pl0KXTaSk8k-3" value="Display error message" style="rounded=0;whiteSpace=wrap;html=1;" vertex="1" parent="1">
          <mxGeometry x="571.25" y="350" width="120" height="60" as="geometry" />
        </mxCell>
        <mxCell id="WwHhSgSB2Pl0KXTaSk8k-7" style="edgeStyle=orthogonalEdgeStyle;rounded=0;orthogonalLoop=1;jettySize=auto;html=1;entryX=0.5;entryY=1;entryDx=0;entryDy=0;" edge="1" parent="1" source="WwHhSgSB2Pl0KXTaSk8k-4" target="WwHhSgSB2Pl0KXTaSk8k-3">
          <mxGeometry relative="1" as="geometry" />
        </mxCell>
        <mxCell id="WwHhSgSB2Pl0KXTaSk8k-12" value="" style="edgeStyle=orthogonalEdgeStyle;rounded=0;orthogonalLoop=1;jettySize=auto;html=1;" edge="1" parent="1" source="WwHhSgSB2Pl0KXTaSk8k-4" target="WwHhSgSB2Pl0KXTaSk8k-11">
          <mxGeometry relative="1" as="geometry" />
        </mxCell>
        <mxCell id="WwHhSgSB2Pl0KXTaSk8k-4" value="! studentId.matches(&quot;[0-9]+)&quot;]" style="rhombus;whiteSpace=wrap;html=1;" vertex="1" parent="1">
          <mxGeometry x="320" y="480" width="182.5" height="130" as="geometry" />
        </mxCell>
        <mxCell id="WwHhSgSB2Pl0KXTaSk8k-9" value="True" style="text;html=1;strokeColor=none;fillColor=none;align=center;verticalAlign=middle;whiteSpace=wrap;rounded=0;" vertex="1" parent="1">
          <mxGeometry x="531.25" y="510" width="60" height="30" as="geometry" />
        </mxCell>
        <mxCell id="WwHhSgSB2Pl0KXTaSk8k-20" value="" style="edgeStyle=orthogonalEdgeStyle;rounded=0;orthogonalLoop=1;jettySize=auto;html=1;" edge="1" parent="1" source="WwHhSgSB2Pl0KXTaSk8k-11" target="WwHhSgSB2Pl0KXTaSk8k-15">
          <mxGeometry relative="1" as="geometry" />
        </mxCell>
        <mxCell id="WwHhSgSB2Pl0KXTaSk8k-11" value="input full name" style="shape=parallelogram;perimeter=parallelogramPerimeter;whiteSpace=wrap;html=1;fixedSize=1;" vertex="1" parent="1">
          <mxGeometry x="326.25" y="680" width="170" height="60" as="geometry" />
        </mxCell>
        <mxCell id="WwHhSgSB2Pl0KXTaSk8k-21" style="edgeStyle=orthogonalEdgeStyle;rounded=0;orthogonalLoop=1;jettySize=auto;html=1;entryX=0.5;entryY=1;entryDx=0;entryDy=0;" edge="1" parent="1" source="WwHhSgSB2Pl0KXTaSk8k-15" target="WwHhSgSB2Pl0KXTaSk8k-17">
          <mxGeometry relative="1" as="geometry" />
        </mxCell>
        <mxCell id="WwHhSgSB2Pl0KXTaSk8k-26" value="" style="edgeStyle=orthogonalEdgeStyle;rounded=0;orthogonalLoop=1;jettySize=auto;html=1;" edge="1" parent="1" source="WwHhSgSB2Pl0KXTaSk8k-15" target="WwHhSgSB2Pl0KXTaSk8k-25">
          <mxGeometry relative="1" as="geometry" />
        </mxCell>
        <mxCell id="WwHhSgSB2Pl0KXTaSk8k-15" value="! name.matches(&quot;[a-zA-Z ]+)&quot;]" style="rhombus;whiteSpace=wrap;html=1;" vertex="1" parent="1">
          <mxGeometry x="320" y="780" width="182.5" height="130" as="geometry" />
        </mxCell>
        <mxCell id="WwHhSgSB2Pl0KXTaSk8k-19" style="edgeStyle=orthogonalEdgeStyle;rounded=0;orthogonalLoop=1;jettySize=auto;html=1;" edge="1" parent="1" source="WwHhSgSB2Pl0KXTaSk8k-17">
          <mxGeometry relative="1" as="geometry">
            <mxPoint x="431.25" y="630" as="targetPoint" />
            <Array as="points">
              <mxPoint x="631.25" y="630" />
            </Array>
          </mxGeometry>
        </mxCell>
        <mxCell id="WwHhSgSB2Pl0KXTaSk8k-17" value="Display error message" style="rounded=0;whiteSpace=wrap;html=1;" vertex="1" parent="1">
          <mxGeometry x="571.25" y="680" width="120" height="60" as="geometry" />
        </mxCell>
        <mxCell id="WwHhSgSB2Pl0KXTaSk8k-22" value="True" style="text;html=1;strokeColor=none;fillColor=none;align=center;verticalAlign=middle;whiteSpace=wrap;rounded=0;" vertex="1" parent="1">
          <mxGeometry x="531.25" y="810" width="60" height="30" as="geometry" />
        </mxCell>
        <mxCell id="WwHhSgSB2Pl0KXTaSk8k-23" value="False" style="text;html=1;strokeColor=none;fillColor=none;align=center;verticalAlign=middle;whiteSpace=wrap;rounded=0;" vertex="1" parent="1">
          <mxGeometry x="351.25" y="630" width="60" height="30" as="geometry" />
        </mxCell>
        <mxCell id="WwHhSgSB2Pl0KXTaSk8k-28" value="" style="edgeStyle=orthogonalEdgeStyle;rounded=0;orthogonalLoop=1;jettySize=auto;html=1;" edge="1" parent="1" source="WwHhSgSB2Pl0KXTaSk8k-25" target="WwHhSgSB2Pl0KXTaSk8k-27">
          <mxGeometry relative="1" as="geometry" />
        </mxCell>
        <mxCell id="WwHhSgSB2Pl0KXTaSk8k-25" value="input level" style="shape=parallelogram;perimeter=parallelogramPerimeter;whiteSpace=wrap;html=1;fixedSize=1;" vertex="1" parent="1">
          <mxGeometry x="326.25" y="1000" width="170" height="60" as="geometry" />
        </mxCell>
        <mxCell id="WwHhSgSB2Pl0KXTaSk8k-30" style="edgeStyle=orthogonalEdgeStyle;rounded=0;orthogonalLoop=1;jettySize=auto;html=1;entryX=0.5;entryY=1;entryDx=0;entryDy=0;" edge="1" parent="1" source="WwHhSgSB2Pl0KXTaSk8k-27" target="WwHhSgSB2Pl0KXTaSk8k-29">
          <mxGeometry relative="1" as="geometry" />
        </mxCell>
        <mxCell id="WwHhSgSB2Pl0KXTaSk8k-37" value="" style="edgeStyle=orthogonalEdgeStyle;rounded=0;orthogonalLoop=1;jettySize=auto;html=1;" edge="1" parent="1" source="WwHhSgSB2Pl0KXTaSk8k-27" target="WwHhSgSB2Pl0KXTaSk8k-36">
          <mxGeometry relative="1" as="geometry" />
        </mxCell>
        <mxCell id="WwHhSgSB2Pl0KXTaSk8k-27" value="! name.matches(&quot;[a-zA-Z ]+)&quot;]" style="rhombus;whiteSpace=wrap;html=1;" vertex="1" parent="1">
          <mxGeometry x="320" y="1120" width="182.5" height="130" as="geometry" />
        </mxCell>
        <mxCell id="WwHhSgSB2Pl0KXTaSk8k-32" style="edgeStyle=orthogonalEdgeStyle;rounded=0;orthogonalLoop=1;jettySize=auto;html=1;" edge="1" parent="1" source="WwHhSgSB2Pl0KXTaSk8k-29">
          <mxGeometry relative="1" as="geometry">
            <mxPoint x="430" y="940" as="targetPoint" />
            <Array as="points">
              <mxPoint x="631" y="940" />
              <mxPoint x="430" y="940" />
            </Array>
          </mxGeometry>
        </mxCell>
        <mxCell id="WwHhSgSB2Pl0KXTaSk8k-29" value="Display error message" style="rounded=0;whiteSpace=wrap;html=1;" vertex="1" parent="1">
          <mxGeometry x="571.25" y="1000" width="120" height="60" as="geometry" />
        </mxCell>
        <mxCell id="WwHhSgSB2Pl0KXTaSk8k-33" value="False" style="text;html=1;strokeColor=none;fillColor=none;align=center;verticalAlign=middle;whiteSpace=wrap;rounded=0;" vertex="1" parent="1">
          <mxGeometry x="351.25" y="930" width="60" height="30" as="geometry" />
        </mxCell>
        <mxCell id="WwHhSgSB2Pl0KXTaSk8k-35" value="True" style="text;html=1;strokeColor=none;fillColor=none;align=center;verticalAlign=middle;whiteSpace=wrap;rounded=0;" vertex="1" parent="1">
          <mxGeometry x="531.25" y="1150" width="60" height="30" as="geometry" />
        </mxCell>
        <mxCell id="WwHhSgSB2Pl0KXTaSk8k-39" value="" style="edgeStyle=orthogonalEdgeStyle;rounded=0;orthogonalLoop=1;jettySize=auto;html=1;" edge="1" parent="1" source="WwHhSgSB2Pl0KXTaSk8k-36" target="WwHhSgSB2Pl0KXTaSk8k-38">
          <mxGeometry relative="1" as="geometry" />
        </mxCell>
        <mxCell id="WwHhSgSB2Pl0KXTaSk8k-36" value="&lt;font style=&quot;font-size: 14px;&quot;&gt;Enter score for subject (i+1)&lt;/font&gt;" style="shape=parallelogram;perimeter=parallelogramPerimeter;whiteSpace=wrap;html=1;fixedSize=1;" vertex="1" parent="1">
          <mxGeometry x="296.75" y="1320" width="229" height="60" as="geometry" />
        </mxCell>
        <mxCell id="WwHhSgSB2Pl0KXTaSk8k-42" style="edgeStyle=orthogonalEdgeStyle;rounded=0;orthogonalLoop=1;jettySize=auto;html=1;entryX=0;entryY=0.5;entryDx=0;entryDy=0;" edge="1" parent="1" source="WwHhSgSB2Pl0KXTaSk8k-38" target="WwHhSgSB2Pl0KXTaSk8k-40">
          <mxGeometry relative="1" as="geometry" />
        </mxCell>
        <mxCell id="WwHhSgSB2Pl0KXTaSk8k-45" value="" style="edgeStyle=orthogonalEdgeStyle;rounded=0;orthogonalLoop=1;jettySize=auto;html=1;" edge="1" parent="1" source="WwHhSgSB2Pl0KXTaSk8k-38" target="WwHhSgSB2Pl0KXTaSk8k-44">
          <mxGeometry relative="1" as="geometry" />
        </mxCell>
        <mxCell id="WwHhSgSB2Pl0KXTaSk8k-38" value="score &amp;gt;= 0 &amp;amp;&amp;amp; score &amp;lt;= 100" style="rhombus;whiteSpace=wrap;html=1;" vertex="1" parent="1">
          <mxGeometry x="326.75" y="1440" width="169" height="110" as="geometry" />
        </mxCell>
        <mxCell id="WwHhSgSB2Pl0KXTaSk8k-46" style="edgeStyle=orthogonalEdgeStyle;rounded=0;orthogonalLoop=1;jettySize=auto;html=1;" edge="1" parent="1" source="WwHhSgSB2Pl0KXTaSk8k-40">
          <mxGeometry relative="1" as="geometry">
            <mxPoint x="430" y="1270" as="targetPoint" />
            <Array as="points">
              <mxPoint x="630" y="1270" />
            </Array>
          </mxGeometry>
        </mxCell>
        <mxCell id="WwHhSgSB2Pl0KXTaSk8k-40" value="Display error message" style="rounded=0;whiteSpace=wrap;html=1;" vertex="1" parent="1">
          <mxGeometry x="571.25" y="1465" width="120" height="60" as="geometry" />
        </mxCell>
        <mxCell id="WwHhSgSB2Pl0KXTaSk8k-51" value="" style="edgeStyle=orthogonalEdgeStyle;rounded=0;orthogonalLoop=1;jettySize=auto;html=1;" edge="1" parent="1" source="WwHhSgSB2Pl0KXTaSk8k-44" target="WwHhSgSB2Pl0KXTaSk8k-48">
          <mxGeometry relative="1" as="geometry" />
        </mxCell>
        <mxCell id="WwHhSgSB2Pl0KXTaSk8k-44" value="confirmation to record the scores" style="shape=parallelogram;perimeter=parallelogramPerimeter;whiteSpace=wrap;html=1;fixedSize=1;" vertex="1" parent="1">
          <mxGeometry x="326.25" y="1620" width="170" height="60" as="geometry" />
        </mxCell>
        <mxCell id="WwHhSgSB2Pl0KXTaSk8k-47" value="False" style="text;html=1;strokeColor=none;fillColor=none;align=center;verticalAlign=middle;whiteSpace=wrap;rounded=0;" vertex="1" parent="1">
          <mxGeometry x="351.25" y="1270" width="60" height="30" as="geometry" />
        </mxCell>
        <mxCell id="WwHhSgSB2Pl0KXTaSk8k-52" value="" style="edgeStyle=orthogonalEdgeStyle;rounded=0;orthogonalLoop=1;jettySize=auto;html=1;" edge="1" parent="1" source="WwHhSgSB2Pl0KXTaSk8k-48" target="WwHhSgSB2Pl0KXTaSk8k-49">
          <mxGeometry relative="1" as="geometry" />
        </mxCell>
        <mxCell id="WwHhSgSB2Pl0KXTaSk8k-55" value="" style="edgeStyle=orthogonalEdgeStyle;rounded=0;orthogonalLoop=1;jettySize=auto;html=1;" edge="1" parent="1" source="WwHhSgSB2Pl0KXTaSk8k-48" target="WwHhSgSB2Pl0KXTaSk8k-54">
          <mxGeometry relative="1" as="geometry" />
        </mxCell>
        <mxCell id="WwHhSgSB2Pl0KXTaSk8k-48" value="case &quot;1&quot;" style="rhombus;whiteSpace=wrap;html=1;" vertex="1" parent="1">
          <mxGeometry x="326.75" y="1730" width="169" height="110" as="geometry" />
        </mxCell>
        <mxCell id="WwHhSgSB2Pl0KXTaSk8k-53" value="" style="edgeStyle=orthogonalEdgeStyle;rounded=0;orthogonalLoop=1;jettySize=auto;html=1;" edge="1" parent="1" source="WwHhSgSB2Pl0KXTaSk8k-49" target="WwHhSgSB2Pl0KXTaSk8k-50">
          <mxGeometry relative="1" as="geometry" />
        </mxCell>
        <mxCell id="WwHhSgSB2Pl0KXTaSk8k-67" value="" style="edgeStyle=orthogonalEdgeStyle;rounded=0;orthogonalLoop=1;jettySize=auto;html=1;" edge="1" parent="1" source="WwHhSgSB2Pl0KXTaSk8k-49" target="WwHhSgSB2Pl0KXTaSk8k-66">
          <mxGeometry relative="1" as="geometry" />
        </mxCell>
        <mxCell id="WwHhSgSB2Pl0KXTaSk8k-49" value="case &quot;2&quot;" style="rhombus;whiteSpace=wrap;html=1;" vertex="1" parent="1">
          <mxGeometry x="560" y="1730" width="169" height="110" as="geometry" />
        </mxCell>
        <mxCell id="WwHhSgSB2Pl0KXTaSk8k-63" value="" style="edgeStyle=orthogonalEdgeStyle;rounded=0;orthogonalLoop=1;jettySize=auto;html=1;" edge="1" parent="1" source="WwHhSgSB2Pl0KXTaSk8k-50" target="WwHhSgSB2Pl0KXTaSk8k-62">
          <mxGeometry relative="1" as="geometry" />
        </mxCell>
        <mxCell id="WwHhSgSB2Pl0KXTaSk8k-50" value="default" style="rhombus;whiteSpace=wrap;html=1;" vertex="1" parent="1">
          <mxGeometry x="790" y="1730" width="169" height="110" as="geometry" />
        </mxCell>
        <mxCell id="WwHhSgSB2Pl0KXTaSk8k-59" value="" style="edgeStyle=orthogonalEdgeStyle;rounded=0;orthogonalLoop=1;jettySize=auto;html=1;" edge="1" parent="1" source="WwHhSgSB2Pl0KXTaSk8k-54" target="WwHhSgSB2Pl0KXTaSk8k-56">
          <mxGeometry relative="1" as="geometry" />
        </mxCell>
        <mxCell id="WwHhSgSB2Pl0KXTaSk8k-54" value="Print personal details and score details" style="rounded=0;whiteSpace=wrap;html=1;" vertex="1" parent="1">
          <mxGeometry x="326.25" y="1910" width="169" height="80" as="geometry" />
        </mxCell>
        <mxCell id="WwHhSgSB2Pl0KXTaSk8k-60" value="" style="edgeStyle=orthogonalEdgeStyle;rounded=0;orthogonalLoop=1;jettySize=auto;html=1;" edge="1" parent="1" source="WwHhSgSB2Pl0KXTaSk8k-56" target="WwHhSgSB2Pl0KXTaSk8k-58">
          <mxGeometry relative="1" as="geometry" />
        </mxCell>
        <mxCell id="WwHhSgSB2Pl0KXTaSk8k-56" value="press Enter to start again" style="shape=parallelogram;perimeter=parallelogramPerimeter;whiteSpace=wrap;html=1;fixedSize=1;" vertex="1" parent="1">
          <mxGeometry x="314.75" y="2050" width="193" height="70" as="geometry" />
        </mxCell>
        <mxCell id="WwHhSgSB2Pl0KXTaSk8k-61" style="edgeStyle=orthogonalEdgeStyle;rounded=0;orthogonalLoop=1;jettySize=auto;html=1;" edge="1" parent="1" source="WwHhSgSB2Pl0KXTaSk8k-58">
          <mxGeometry relative="1" as="geometry">
            <mxPoint x="380" y="290" as="targetPoint" />
            <Array as="points">
              <mxPoint x="410" y="2300" />
              <mxPoint x="250" y="2300" />
              <mxPoint x="250" y="290" />
            </Array>
          </mxGeometry>
        </mxCell>
        <mxCell id="WwHhSgSB2Pl0KXTaSk8k-58" value="clear data" style="rounded=0;whiteSpace=wrap;html=1;" vertex="1" parent="1">
          <mxGeometry x="325.25" y="2190" width="170" height="60" as="geometry" />
        </mxCell>
        <mxCell id="WwHhSgSB2Pl0KXTaSk8k-65" style="edgeStyle=orthogonalEdgeStyle;rounded=0;orthogonalLoop=1;jettySize=auto;html=1;" edge="1" parent="1" source="WwHhSgSB2Pl0KXTaSk8k-62">
          <mxGeometry relative="1" as="geometry">
            <mxPoint x="430" y="1570" as="targetPoint" />
            <Array as="points">
              <mxPoint x="1240" y="1785" />
              <mxPoint x="1240" y="1570" />
            </Array>
          </mxGeometry>
        </mxCell>
        <mxCell id="WwHhSgSB2Pl0KXTaSk8k-62" value="Display error message" style="rounded=0;whiteSpace=wrap;html=1;" vertex="1" parent="1">
          <mxGeometry x="1020" y="1747.5" width="200" height="75" as="geometry" />
        </mxCell>
        <mxCell id="WwHhSgSB2Pl0KXTaSk8k-68" style="edgeStyle=orthogonalEdgeStyle;rounded=0;orthogonalLoop=1;jettySize=auto;html=1;endArrow=none;endFill=0;" edge="1" parent="1" source="WwHhSgSB2Pl0KXTaSk8k-66">
          <mxGeometry relative="1" as="geometry">
            <mxPoint x="410" y="2300" as="targetPoint" />
            <Array as="points">
              <mxPoint x="644" y="2300" />
            </Array>
          </mxGeometry>
        </mxCell>
        <mxCell id="WwHhSgSB2Pl0KXTaSk8k-66" value="Display error message" style="rounded=0;whiteSpace=wrap;html=1;" vertex="1" parent="1">
          <mxGeometry x="544.5" y="1910" width="200" height="75" as="geometry" />
        </mxCell>
        <mxCell id="WwHhSgSB2Pl0KXTaSk8k-69" value="True" style="text;html=1;strokeColor=none;fillColor=none;align=center;verticalAlign=middle;whiteSpace=wrap;rounded=0;" vertex="1" parent="1">
          <mxGeometry x="340" y="1860" width="60" height="30" as="geometry" />
        </mxCell>
        <mxCell id="WwHhSgSB2Pl0KXTaSk8k-70" value="False" style="text;html=1;strokeColor=none;fillColor=none;align=center;verticalAlign=middle;whiteSpace=wrap;rounded=0;" vertex="1" parent="1">
          <mxGeometry x="495.25" y="1747.5" width="60" height="30" as="geometry" />
        </mxCell>
        <mxCell id="WwHhSgSB2Pl0KXTaSk8k-71" value="False" style="text;html=1;strokeColor=none;fillColor=none;align=center;verticalAlign=middle;whiteSpace=wrap;rounded=0;" vertex="1" parent="1">
          <mxGeometry x="729" y="1747.5" width="60" height="30" as="geometry" />
        </mxCell>
        <mxCell id="WwHhSgSB2Pl0KXTaSk8k-72" value="False" style="text;html=1;strokeColor=none;fillColor=none;align=center;verticalAlign=middle;whiteSpace=wrap;rounded=0;" vertex="1" parent="1">
          <mxGeometry x="950" y="1747.5" width="60" height="30" as="geometry" />
        </mxCell>
        <mxCell id="WwHhSgSB2Pl0KXTaSk8k-73" value="True" style="text;html=1;strokeColor=none;fillColor=none;align=center;verticalAlign=middle;whiteSpace=wrap;rounded=0;" vertex="1" parent="1">
          <mxGeometry x="580" y="1860" width="60" height="30" as="geometry" />
        </mxCell>
        <mxCell id="WwHhSgSB2Pl0KXTaSk8k-74" value="True" style="text;html=1;strokeColor=none;fillColor=none;align=center;verticalAlign=middle;whiteSpace=wrap;rounded=0;" vertex="1" parent="1">
          <mxGeometry x="340" y="2010" width="60" height="30" as="geometry" />
        </mxCell>
        <mxCell id="WwHhSgSB2Pl0KXTaSk8k-75" value="True" style="text;html=1;strokeColor=none;fillColor=none;align=center;verticalAlign=middle;whiteSpace=wrap;rounded=0;" vertex="1" parent="1">
          <mxGeometry x="340" y="2140" width="60" height="30" as="geometry" />
        </mxCell>
      </root>
    </mxGraphModel>
  </diagram>
</mxfile>
